<svg width="31" height="21" viewBox="0 0 31 21" fill="none" xmlns="http://www.w3.org/2000/svg">
<path d="M30.3 7L26.8 7.2L23.6 2.3C23.5 2.1 23.2 2 23 2C22.8 2 22.5 2.1 22.4 2.3L19.2 7.2H15.7C15.3 7.2 15 7.5 15 7.9C15 8 15 8 15 8.1L16.9 14.9C17.1 15.6 17.6 16 18.3 16H27.7C28.4 16 28.9 15.6 29.1 14.9L31 8C31 7.9 31 7.9 31 7.8C31 7.4 30.7 7 30.3 7ZM23 3.9L25.2 7.1H20.9L23 3.9Z" fill="black"/>
<circle cx="10.5" cy="10.5" r="10.5" fill="white"/>
<path d="M7.3996 15C7.30627 15 7.22693 14.972 7.1616 14.916C7.1056 14.8507 7.0776 14.7713 7.0776 14.678V14.23C7.0776 14.0153 7.19427 13.81 7.4276 13.614L10.3956 10.646C11.1143 10.0487 11.6089 9.56333 11.8796 9.19C12.1503 8.80733 12.2856 8.406 12.2856 7.986C12.2856 7.44467 12.1316 7.02 11.8236 6.712C11.5249 6.404 11.0863 6.25 10.5076 6.25C9.96627 6.25 9.53227 6.41333 9.2056 6.74C8.87893 7.05733 8.67827 7.482 8.6036 8.014C8.58493 8.126 8.53827 8.21 8.4636 8.266C8.39827 8.31267 8.3236 8.336 8.2396 8.336H7.5116C7.4276 8.336 7.3576 8.31267 7.3016 8.266C7.2456 8.21 7.2176 8.14467 7.2176 8.07C7.23627 7.566 7.3716 7.08533 7.6236 6.628C7.8756 6.16133 8.24427 5.78333 8.7296 5.494C9.22427 5.19533 9.81694 5.046 10.5076 5.046C11.5623 5.046 12.3556 5.32133 12.8876 5.872C13.4289 6.41333 13.6996 7.104 13.6996 7.944C13.6996 8.532 13.5503 9.064 13.2516 9.54C12.9623 10.0067 12.5096 10.5107 11.8936 11.052L9.2056 13.782H13.5736C13.6763 13.782 13.7556 13.8147 13.8116 13.88C13.8769 13.936 13.9096 14.0107 13.9096 14.104V14.678C13.9096 14.7713 13.8769 14.8507 13.8116 14.916C13.7463 14.972 13.6669 15 13.5736 15H7.3996Z" fill="black"/>
</svg>
